<svg width="31" height="32" viewBox="0 0 31 32" fill="none" xmlns="http://www.w3.org/2000/svg">
<path d="M30.4695 29.0229C30.6129 29.1661 30.7266 29.3361 30.8042 29.5233C30.8818 29.7104 30.9218 29.911 30.9219 30.1136C30.9219 30.3162 30.8821 30.5168 30.8046 30.704C30.7271 30.8912 30.6134 31.0613 30.4702 31.2046C30.3269 31.3478 30.1568 31.4614 29.9697 31.539C29.7825 31.6165 29.5818 31.6563 29.3792 31.6562C29.1766 31.6562 28.976 31.6162 28.7889 31.5386C28.6017 31.461 28.4317 31.3472 28.2886 31.2039L15.4993 18.4146L2.71007 31.2039C2.4208 31.4928 2.02864 31.655 1.6198 31.6549C1.21096 31.6548 0.818906 31.4923 0.529813 31.2032C0.24072 30.9141 0.0782533 30.522 0.0781251 30.1132C0.0779969 29.7044 0.240219 29.3122 0.52913 29.0229L13.3184 16.2337L0.52913 3.44445C0.240219 3.15517 0.0779969 2.76301 0.0781251 2.35418C0.0782533 1.94534 0.24072 1.55328 0.529813 1.26419C0.818906 0.975095 1.21096 0.812628 1.6198 0.8125C2.02864 0.812372 2.4208 0.974594 2.71007 1.2635L15.4993 14.0527L28.2886 1.2635C28.5778 0.974594 28.97 0.812372 29.3788 0.8125C29.7877 0.812628 30.1797 0.975095 30.4688 1.26419C30.7579 1.55328 30.9204 1.94534 30.9205 2.35418C30.9206 2.76301 30.7584 3.15517 30.4695 3.44445L17.6803 16.2337L30.4695 29.0229Z" fill="white"/>
</svg>
