<svg width="19" height="19" viewBox="0 0 19 19" fill="none" xmlns="http://www.w3.org/2000/svg">
<path d="M18.679 3.24412L15.7559 0.321039C15.5503 0.11548 15.2715 0 14.9808 0C14.6901 0 14.4112 0.11548 14.2057 0.321039L5.43644 9.09027C5.23089 9.29586 5.1154 9.57466 5.11539 9.86538V12.7885C5.11539 13.0792 5.23088 13.358 5.43645 13.5635C5.64202 13.7691 5.92083 13.8846 6.21154 13.8846H9.13462C9.27857 13.8846 9.42111 13.8563 9.55411 13.8012C9.6871 13.7461 9.80794 13.6654 9.90973 13.5636L18.679 4.79433C18.7808 4.69254 18.8615 4.5717 18.9166 4.43871C18.9717 4.30572 19 4.16317 19 4.01922C19 3.87527 18.9717 3.73273 18.9166 3.59974C18.8615 3.46674 18.7808 3.3459 18.679 3.24412ZM14.9808 2.64633L16.3536 4.01922L15.3462 5.02671L13.9733 3.65384L14.9808 2.64633ZM8.68057 11.6923H7.3077V10.3194L12.4231 5.20405L13.796 6.57692L8.68057 11.6923ZM18.2692 9.9173V17.1731C18.2687 17.6574 18.076 18.1218 17.7335 18.4643C17.391 18.8068 16.9267 18.9995 16.4423 19H1.82692C1.34256 18.9995 0.878194 18.8068 0.535697 18.4643C0.193201 18.1218 0.000546404 17.6574 0 17.1731V2.55768C0.000542544 2.07332 0.193196 1.60895 0.535693 1.26645C0.87819 0.923954 1.34256 0.731301 1.82692 0.730759H9.0827C9.37342 0.730759 9.65223 0.846246 9.8578 1.05181C10.0634 1.25738 10.1789 1.53619 10.1789 1.82691C10.1789 2.11763 10.0634 2.39644 9.8578 2.60201C9.65223 2.80758 9.37342 2.92307 9.0827 2.92307H2.19231V16.8077H16.0769V9.9173C16.0769 9.62658 16.1924 9.34777 16.398 9.1422C16.6036 8.93663 16.8824 8.82114 17.1731 8.82114C17.4638 8.82114 17.7426 8.93663 17.9482 9.1422C18.1538 9.34777 18.2692 9.62658 18.2692 9.9173Z" fill="black"/>
</svg>
